<svg width="172" height="113" viewBox="0 0 172 113" fill="none" xmlns="http://www.w3.org/2000/svg">
<path d="M136.45 7.23225L136.45 7.23265L136.45 7.23288L136.45 7.23303L136.45 7.23309L136.457 7.2452L136.464 7.25754L148.23 26.7798L146.07 29.6916H25.5113L23.3508 26.7798L35.1165 7.25754L35.124 7.24519L35.1308 7.23307L35.1308 7.23301L35.1309 7.23286L35.131 7.23263L35.1313 7.23223L35.1343 7.22683L35.1488 7.20168C35.162 7.17877 35.1824 7.14392 35.2091 7.09891C35.2626 7.0088 35.3416 6.87857 35.4407 6.72243C35.6403 6.40802 35.9155 5.99839 36.2252 5.60243C36.5414 5.19811 36.8622 4.84893 37.148 4.62477C37.3445 4.47065 37.4474 4.43505 37.4735 4.42652C37.5584 4.44009 37.6441 4.44555 37.6884 4.44837L37.6907 4.44852C37.7688 4.45349 37.8659 4.45798 37.9781 4.46215C38.2034 4.47054 38.5113 4.47847 38.8934 4.48604C39.6586 4.50119 40.7382 4.51521 42.0852 4.52813C44.78 4.55397 48.5558 4.57548 53.0509 4.59269C62.0417 4.62711 73.9164 4.64432 85.7904 4.64432C97.6645 4.64432 109.539 4.62711 118.53 4.59269C123.025 4.57548 126.801 4.55397 129.496 4.52813C130.843 4.51521 131.922 4.50119 132.687 4.48604C133.069 4.47847 133.377 4.47054 133.603 4.46215C133.715 4.45798 133.812 4.45349 133.89 4.44852L133.892 4.44837C133.937 4.44555 134.022 4.44008 134.107 4.42652C134.133 4.43504 134.236 4.47063 134.433 4.6248C134.719 4.84897 135.039 5.19815 135.356 5.60247C135.665 5.99842 135.941 6.40805 136.14 6.72245C136.239 6.8786 136.318 7.00882 136.372 7.09893C136.399 7.14394 136.419 7.17879 136.432 7.2017L136.447 7.22685L136.45 7.23225Z" fill="url(#paint0_linear_6_871)" stroke="black" stroke-width="2"/>
<path opacity="0.3" d="M61.3968 29.6916C63.3517 28.7513 65.3495 27.9356 67.4174 27.2963C73.5387 25.7505 79.6997 25.9096 85.9247 26.0703C87.5557 26.1124 89.1911 26.1547 90.8313 26.1664C98.6684 26.2223 106.501 25.5599 113.785 20.4863L113.785 20.4863L113.792 20.4814C119.141 16.6879 120.342 10.6221 120.824 4.58322C124.533 4.56679 127.641 4.54709 129.904 4.52406C131.129 4.51161 132.109 4.49815 132.804 4.48366C133.151 4.47643 133.431 4.46885 133.638 4.46083C133.74 4.45684 133.83 4.45253 133.903 4.44772L133.905 4.4476C133.946 4.44489 134.026 4.43955 134.108 4.42652C134.134 4.43505 134.237 4.47065 134.433 4.62477C134.719 4.84893 135.04 5.19812 135.356 5.60244C135.666 5.9984 135.941 6.40803 136.14 6.72244C136.24 6.87858 136.319 7.00881 136.372 7.09892C136.399 7.14393 136.419 7.17878 136.432 7.20169L136.447 7.22684L136.45 7.23224L136.45 7.23264L136.45 7.23287L136.45 7.23302L136.45 7.23308L136.457 7.24519L136.465 7.25754L148.23 26.7798L146.07 29.6916H61.3968Z" fill="url(#paint1_linear_6_871)" stroke="black" stroke-width="2"/>
<path d="M8.51367 88.1618L27.3726 96.9449V96.9562V96.9721V96.9882V97.0044V97.0208V97.0374V97.0542V97.0711V97.0882V97.1054V97.1229V97.1404V97.1582V97.1761V97.1942V97.2124V97.2308V97.2493V97.268V97.2869V97.3059V97.3251V97.3444V97.3639V97.3835V97.4033V97.4232V97.4433V97.4636V97.484V97.5045V97.5252V97.546V97.567V97.5881V97.6094V97.6308V97.6524V97.6741V97.6959V97.7179V97.74V97.7622V97.7846V97.8072V97.8298V97.8526V97.8756V97.8987V97.9219V97.9452V97.9687V97.9923V98.016V98.0399V98.0639V98.088V98.1122V98.1366V98.1611V98.1857V98.2104V98.2353V98.2603V98.2854V98.3106V98.336V98.3615V98.387V98.4128V98.4386V98.4645V98.4906V98.5167V98.543V98.5694V98.5959V98.6225V98.6492V98.6761V98.703V98.7301V98.7572V98.7845V98.8118V98.8393V98.8669V98.8946V98.9223V98.9502V98.9782V99.0063V99.0345V99.0627V99.0911V99.1196V99.1482V99.1768V99.2056V99.2344V99.2634V99.2924V99.3215V99.3507V99.38V99.4094V99.4389V99.4685V99.4981V99.5279V99.5577V99.5876V99.6176V99.6477V99.6778V99.708V99.7384V99.7687V99.7992V99.8298V99.8604V99.8911V99.9219V99.9527V99.9836V100.015V100.046V100.077V100.108V100.139V100.171V100.202V100.234V100.265V100.297V100.328V100.36V100.392V100.424V100.456V100.488V100.52V100.552V100.584V100.616V100.648V100.681V100.713V100.746V100.778V100.811V100.843V100.876V100.909V100.941V100.974V101.007V101.04V101.073V101.106V101.139V101.172V101.205V101.238V101.271V101.305V101.338V101.371V101.405V101.438V101.471V101.505V101.538V101.572V101.605V101.639V101.673V101.706V101.74V101.774V101.807V101.841V101.875V101.909V101.943V101.977V102.01V102.044V102.078V102.112V102.146V102.18V102.214V102.248V102.282V102.316V102.351V102.385V102.419V102.453V102.487V102.521V102.555V102.59V102.624V102.658V102.692V102.726V102.761V102.795V102.829V102.863V102.898V102.932V102.966V103V103.034V103.069V103.103V103.137V103.171V103.206V103.24V103.274V103.308V103.342V103.377V103.411V103.445V103.479V103.513V103.547V103.582V103.616V103.65V103.684V103.718V103.752V103.786V103.82V103.854V103.888V103.922V103.956V103.99V104.024V104.057V104.091V104.125V104.159V104.193V104.226V104.26V104.294V104.327V104.361V104.395V104.428V104.462V104.495V104.528V104.562V104.595V104.629V104.662V104.695V104.728V104.761V104.795V104.828V104.861V104.894V104.927V104.959V104.992V105.025V105.058V105.091V105.123V105.156V105.188V105.221V105.253V105.286V105.318V105.35V105.383V105.415V105.447V105.479V105.511V105.543V105.575V105.607V105.638V105.67V105.702V105.733V105.765V105.796V105.827V105.859V105.89V105.921V105.952V105.983V106.014V106.045V106.076V106.106V106.137V106.168V106.198V106.228V106.259V106.289V106.319V106.349V106.379V106.409V106.439V106.469V106.498V106.528V106.558V106.587V106.616V106.645V106.675V106.704V106.733V106.761V106.79V106.819V106.847V106.876V106.904V106.933V106.961V106.989V107.017V107.045V107.073V107.1V107.128V107.155V107.183V107.21V107.237V107.264V107.291V107.318V107.345V107.371V107.398V107.424V107.451V107.477V107.503V107.529V107.555V107.58V107.606V107.632V107.657V107.682V107.707V107.732V107.757V107.782V107.807V107.831V107.855V107.88V107.904V107.928V107.952V107.975V107.999V108.023V108.046V108.069V108.092V108.115V108.138V108.161V108.183V108.206V108.228V108.25V108.272V108.294V108.316V108.337V108.359V108.38V108.401V108.422V108.443V108.464V108.484V108.505V108.525V108.545V108.565V108.585V108.604V108.624V108.643V108.662V108.682V108.7V108.719V108.738V108.756V108.774V108.792V108.81V108.828V108.846V108.863V108.88V108.898V108.915V108.931V108.948V108.964V108.981V108.997V109.013V109.028V109.044V109.059V109.075V109.09C27.3726 109.765 26.9187 110.232 26.1214 110.581C25.7421 110.747 25.351 110.852 25.0471 110.915C24.8974 110.946 24.774 110.965 24.6908 110.977C24.6553 110.982 24.6274 110.986 24.6081 110.988L24.5556 110.989L24.2772 110.994C24.0351 110.998 23.6844 111.004 23.2503 111.011C22.3821 111.024 21.1808 111.04 19.8486 111.051C17.1772 111.072 14.0034 111.072 11.9278 110.988C11.2398 110.96 10.6918 110.626 10.2169 110.02C9.72434 109.391 9.35356 108.515 9.08628 107.563C8.8223 106.622 8.67776 105.674 8.59987 104.953C8.56115 104.595 8.53941 104.298 8.52741 104.093C8.52142 103.99 8.51787 103.91 8.51585 103.858C8.51484 103.832 8.51421 103.812 8.51385 103.8L8.51367 103.793V88.1618Z" fill="url(#paint2_linear_6_871)" stroke="black" stroke-width="2"/>
<path d="M144.713 96.9449L163.572 88.1618V103.793L163.572 103.8C163.571 103.812 163.571 103.832 163.57 103.858C163.568 103.91 163.564 103.99 163.558 104.093C163.546 104.298 163.524 104.595 163.486 104.953C163.408 105.674 163.263 106.622 162.999 107.563C162.732 108.515 162.361 109.391 161.869 110.02C161.394 110.626 160.846 110.96 160.158 110.988C158.082 111.072 154.908 111.072 152.237 111.051C150.905 111.04 149.703 111.024 148.835 111.011C148.401 111.004 148.05 110.998 147.808 110.994L147.53 110.989L147.477 110.988C147.458 110.986 147.43 110.982 147.395 110.977C147.311 110.965 147.188 110.946 147.038 110.915C146.734 110.852 146.343 110.747 145.964 110.581C145.167 110.232 144.713 109.765 144.713 109.09V109.075V109.059V109.044V109.028V109.013V108.997V108.981V108.964V108.948V108.931V108.915V108.898V108.88V108.863V108.846V108.828V108.81V108.792V108.774V108.756V108.738V108.719V108.7V108.682V108.662V108.643V108.624V108.604V108.585V108.565V108.545V108.525V108.505V108.484V108.464V108.443V108.422V108.401V108.38V108.359V108.337V108.316V108.294V108.272V108.25V108.228V108.206V108.183V108.161V108.138V108.115V108.092V108.069V108.046V108.023V107.999V107.975V107.952V107.928V107.904V107.88V107.855V107.831V107.807V107.782V107.757V107.732V107.707V107.682V107.657V107.632V107.606V107.58V107.555V107.529V107.503V107.477V107.451V107.424V107.398V107.371V107.345V107.318V107.291V107.264V107.237V107.21V107.183V107.155V107.128V107.1V107.073V107.045V107.017V106.989V106.961V106.933V106.904V106.876V106.847V106.819V106.79V106.761V106.733V106.704V106.675V106.645V106.616V106.587V106.558V106.528V106.498V106.469V106.439V106.409V106.379V106.349V106.319V106.289V106.259V106.228V106.198V106.168V106.137V106.106V106.076V106.045V106.014V105.983V105.952V105.921V105.89V105.859V105.827V105.796V105.765V105.733V105.702V105.67V105.638V105.607V105.575V105.543V105.511V105.479V105.447V105.415V105.383V105.35V105.318V105.286V105.253V105.221V105.188V105.156V105.123V105.091V105.058V105.025V104.992V104.959V104.927V104.894V104.861V104.828V104.795V104.761V104.728V104.695V104.662V104.629V104.595V104.562V104.528V104.495V104.462V104.428V104.395V104.361V104.327V104.294V104.26V104.226V104.193V104.159V104.125V104.091V104.057V104.024V103.99V103.956V103.922V103.888V103.854V103.82V103.786V103.752V103.718V103.684V103.65V103.616V103.582V103.547V103.513V103.479V103.445V103.411V103.377V103.342V103.308V103.274V103.24V103.206V103.171V103.137V103.103V103.069V103.034V103V102.966V102.932V102.898V102.863V102.829V102.795V102.761V102.726V102.692V102.658V102.624V102.59V102.555V102.521V102.487V102.453V102.419V102.385V102.351V102.316V102.282V102.248V102.214V102.18V102.146V102.112V102.078V102.044V102.01V101.977V101.943V101.909V101.875V101.841V101.807V101.774V101.74V101.706V101.673V101.639V101.605V101.572V101.538V101.505V101.471V101.438V101.405V101.371V101.338V101.305V101.271V101.238V101.205V101.172V101.139V101.106V101.073V101.04V101.007V100.974V100.941V100.909V100.876V100.843V100.811V100.778V100.746V100.713V100.681V100.648V100.616V100.584V100.552V100.52V100.488V100.456V100.424V100.392V100.36V100.328V100.297V100.265V100.234V100.202V100.171V100.139V100.108V100.077V100.046V100.015V99.9836V99.9527V99.9219V99.8911V99.8604V99.8298V99.7992V99.7687V99.7384V99.708V99.6778V99.6477V99.6176V99.5876V99.5577V99.5279V99.4981V99.4685V99.4389V99.4094V99.38V99.3507V99.3215V99.2924V99.2634V99.2344V99.2056V99.1768V99.1482V99.1196V99.0911V99.0627V99.0345V99.0063V98.9782V98.9502V98.9223V98.8946V98.8669V98.8393V98.8118V98.7845V98.7572V98.7301V98.703V98.6761V98.6492V98.6225V98.5959V98.5694V98.543V98.5167V98.4906V98.4645V98.4386V98.4128V98.387V98.3615V98.336V98.3106V98.2854V98.2603V98.2353V98.2104V98.1857V98.1611V98.1366V98.1122V98.088V98.0639V98.0399V98.016V97.9923V97.9687V97.9452V97.9219V97.8987V97.8756V97.8526V97.8298V97.8072V97.7846V97.7622V97.74V97.7179V97.6959V97.6741V97.6524V97.6308V97.6094V97.5881V97.567V97.546V97.5252V97.5045V97.484V97.4636V97.4433V97.4232V97.4033V97.3835V97.3639V97.3444V97.3251V97.3059V97.2869V97.268V97.2493V97.2308V97.2124V97.1942V97.1761V97.1582V97.1404V97.1229V97.1054V97.0882V97.0711V97.0542V97.0374V97.0208V97.0044V96.9882V96.9721V96.9562V96.9449Z" fill="url(#paint3_linear_6_871)" stroke="black" stroke-width="2"/>
<path d="M18.9524 30.2714H20.5053L20.0715 32.1942C19.7757 32.1749 19.4118 32.1512 18.9942 32.1242C17.8143 32.0478 16.2048 31.9448 14.4865 31.8382C11.0574 31.6255 7.17174 31.3971 5.4156 31.3397C4.06132 31.2955 2.96785 30.5468 2.17897 29.5262C1.37004 28.4797 1 27.2971 1 26.6582C1 26.0789 1.29171 25.4967 1.99002 24.8917C2.69631 24.2798 3.73206 23.7264 4.98551 23.2411C7.48516 22.2735 10.5884 21.675 12.9122 21.3322C14.015 21.1696 15.0366 22.0418 15.0366 23.2179V26.3173C15.0366 28.4888 16.7776 30.2714 18.9524 30.2714Z" fill="url(#paint4_linear_6_871)" stroke="black" stroke-width="2"/>
<path d="M151.076 30.2714H152.629C154.804 30.2714 156.545 28.4887 156.545 26.3173V23.2179C156.545 22.0418 157.566 21.1696 158.669 21.3322C160.993 21.675 164.096 22.2735 166.596 23.2411C167.849 23.7264 168.885 24.2798 169.591 24.8917C170.29 25.4967 170.581 26.0789 170.581 26.6582C170.581 27.2971 170.211 28.4797 169.402 29.5262C168.613 30.5468 167.52 31.2955 166.166 31.3397C164.409 31.3971 160.524 31.6255 157.095 31.8382C155.376 31.9448 153.767 32.0478 152.587 32.1242C152.169 32.1512 151.806 32.1749 151.51 32.1942L151.076 30.2714Z" fill="url(#paint5_linear_6_871)" stroke="black" stroke-width="2"/>
<path d="M166.769 59.7862L166.769 59.7857L166.769 59.7824L166.77 59.7539C166.771 59.7266 166.772 59.6832 166.773 59.6248C166.774 59.5078 166.772 59.331 166.764 59.1038C166.746 58.6487 166.696 57.9943 166.57 57.2144C166.318 55.649 165.762 53.612 164.562 51.6689C163.627 50.1556 161.171 46.6956 158.921 43.5777C157.802 42.0268 156.742 40.5724 155.962 39.5057C155.572 38.9723 155.252 38.536 155.03 38.2331L154.773 37.8833L154.706 37.7921L154.689 37.7688L154.684 37.763L154.683 37.7615L154.683 37.7612C154.683 37.7611 154.683 37.7611 155.488 37.168L154.683 37.7611L154.654 37.7217L154.629 37.6797L143.303 18.6608C145.356 22.3062 147.074 25.5439 147.759 26.8467L148.305 27.8848L147.194 28.2598C146.643 28.4458 146.005 28.6229 145.257 28.7743L145.172 28.7917L145.085 28.7939L85.8724 30.3278L85.8594 30.3282H85.8465H85.7342H85.7213L85.7084 30.3278L26.4961 28.794L26.4089 28.7917L26.3234 28.7744C25.5752 28.6228 24.9372 28.4456 24.3857 28.2595L23.2743 27.8845L23.8204 26.8464C24.5038 25.5474 26.2154 22.3218 28.2614 18.6867L16.9517 37.6796L16.9281 37.7193L16.9009 37.7567L16.0925 37.168C16.9009 37.7567 16.9009 37.7567 16.9008 37.7568L16.9006 37.7571L16.8995 37.7586L16.8952 37.7645L16.8782 37.7879L16.8115 37.8796L16.5562 38.2307C16.3353 38.5348 16.0174 38.9727 15.6297 39.5078C14.8544 40.578 13.8001 42.0367 12.6842 43.5908C10.4444 46.71 7.98025 50.1806 7.00771 51.686L6.16775 51.1433L7.00771 51.686C5.58506 53.8881 5.03982 55.9161 4.84611 57.3782C4.74911 58.1104 4.74024 58.7014 4.75429 59.1011C4.76131 59.3009 4.77404 59.4524 4.78424 59.5494C4.78935 59.5979 4.79381 59.6327 4.7966 59.653L4.79905 59.6704L4.79918 59.6712L4.79939 59.6724L4.7994 59.6725L4.79962 59.6739L4.81005 59.7359L4.81222 59.8031L3.81273 59.8353C4.81222 59.8031 4.81222 59.8032 4.81223 59.8034L4.81226 59.8044L4.81237 59.808L4.81283 59.8223L4.81463 59.8786L4.8216 60.0988C4.82769 60.2919 4.83657 60.5757 4.84774 60.9389C4.8701 61.6653 4.90166 62.7091 4.93848 63.9792C5.01211 66.5193 5.10679 69.9651 5.19095 73.5871C5.35181 80.5093 5.47641 88.1473 5.3351 91.2872C5.53973 91.3834 5.86798 91.4994 6.34785 91.6245C7.45957 91.9143 9.14483 92.1937 11.3541 92.456C15.7586 92.9789 22.0922 93.417 29.729 93.7682C44.9949 94.4703 65.3886 94.8217 85.7903 94.8217C106.192 94.8217 126.586 94.4703 141.852 93.7682C149.488 93.417 155.822 92.9789 160.227 92.456C162.436 92.1937 164.121 91.9143 165.233 91.6245C165.713 91.4994 166.041 91.3834 166.246 91.2872C166.104 88.1474 166.229 80.5093 166.39 73.5871C166.474 69.9651 166.569 66.5193 166.642 63.9792C166.679 62.7091 166.711 61.6653 166.733 60.9389C166.74 60.7108 166.746 60.514 166.751 60.3514L166.759 60.0988L166.766 59.8786L166.768 59.8223L166.768 59.808L166.768 59.8044L166.768 59.8034C166.769 59.8032 166.769 59.8031 167.768 59.8353L166.769 59.8031L166.769 59.7944L166.769 59.7862ZM166.769 59.7862L166.769 59.7867L166.769 59.7873L166.769 59.7862ZM35.9133 6.39665C35.1789 7.35896 34.3645 8.54744 33.5139 9.86587L36.9815 4.04237L36.9816 4.04239L36.9856 4.03546C37.8359 2.58118 39.0118 1.93434 40.2484 1.6917L40.2834 1.68484L40.3178 1.6755C41.3083 1.40666 42.8052 1.17924 45.0488 1.12754C52.4351 0.957487 119.146 0.957487 126.532 1.12754C128.778 1.17931 130.275 1.40716 131.266 1.67636L131.3 1.68566L131.335 1.69251C132.57 1.93571 133.744 2.58258 134.594 4.03551L134.598 4.0424L138.073 9.87798C137.253 8.6058 136.466 7.45433 135.752 6.50993L135.452 6.11352L134.955 6.11297L36.7094 6.00331L36.2139 6.00275L35.9133 6.39665Z" fill="url(#paint6_linear_6_871)" stroke="black" stroke-width="2"/>
<path d="M3.87317 83.3768C4.32185 83.4433 4.95323 83.5364 5.72067 83.6482C7.31545 83.8805 9.49847 84.194 11.8509 84.5183C16.539 85.1647 21.9516 85.8616 24.6961 86.0375C40.0025 87.0182 131.578 87.0182 146.884 86.0375C149.629 85.8616 155.042 85.1647 159.73 84.5183C162.082 84.194 164.265 83.8805 165.86 83.6482C166.627 83.5364 167.259 83.4433 167.707 83.3768C167.837 83.7794 167.978 84.4078 167.999 85.2763C168.043 87.0867 167.566 89.9961 165.29 94.1249C164.826 94.9662 163.916 95.8072 162.546 96.6187C161.188 97.4231 159.458 98.1522 157.463 98.8072C153.475 100.117 148.556 101.09 143.743 101.805C138.937 102.518 134.272 102.968 130.805 103.239C129.073 103.374 127.642 103.465 126.645 103.522C126.146 103.551 125.757 103.571 125.492 103.584C125.36 103.59 125.259 103.595 125.191 103.598L125.115 103.601L125.11 103.601H46.4705L46.4658 103.601L46.3897 103.598C46.322 103.595 46.221 103.59 46.0886 103.584C45.824 103.571 45.4341 103.551 44.9357 103.522C43.9387 103.465 42.5078 103.374 40.7754 103.239C37.309 102.968 32.6438 102.518 27.8378 101.805C23.0242 101.09 18.1056 100.117 14.1174 98.8072C12.123 98.1522 10.3925 97.4231 9.03471 96.6187C7.66492 95.8072 6.755 94.9663 6.29109 94.1249C4.0145 89.9961 3.538 87.0867 3.58178 85.2763C3.60278 84.4078 3.74368 83.7794 3.87317 83.3768ZM167.473 82.8146C167.472 82.8142 167.472 82.8143 167.473 82.8149L167.473 82.8146Z" fill="url(#paint7_linear_6_871)" stroke="black" stroke-width="2"/>
<path d="M131.731 63.5271L130.537 60.57L131.464 60.1956L130.537 60.57C130.058 59.3844 128.925 58.6196 127.677 58.6196H43.9042C42.6566 58.6196 41.5231 59.3844 41.0443 60.57L131.731 63.5271ZM131.731 63.5271C132.574 65.6155 131.051 67.8681 128.871 67.8681H42.7103C40.5304 67.8681 39.007 65.6156 39.8503 63.5271C39.8503 63.5271 39.8503 63.5271 39.8503 63.5271L41.0443 60.5701L131.731 63.5271Z" fill="url(#paint8_linear_6_871)" stroke="black" stroke-width="2"/>
<path d="M130.121 75.3205L130.758 76.0917L130.121 75.3206C130.084 75.3517 130.038 75.3673 129.994 75.3673H41.5878C41.543 75.3673 41.4978 75.3517 41.46 75.3206L41.46 75.3205L39.8885 74.0232C39.8885 74.0232 39.8884 74.0232 39.8884 74.0232C39.8361 73.98 39.8179 73.9406 39.8098 73.9078C39.8001 73.8684 39.801 73.8173 39.8196 73.7642C39.8383 73.7111 39.8685 73.6735 39.8967 73.6522C39.9191 73.6352 39.9527 73.6178 40.0162 73.6178H131.565C131.629 73.6178 131.662 73.6352 131.685 73.6522C131.713 73.6736 131.743 73.7111 131.762 73.7642C131.78 73.8173 131.781 73.8684 131.772 73.9078C131.763 73.9405 131.745 73.9799 131.693 74.0232L132.329 74.7944L131.693 74.0232L130.121 75.3205Z" fill="url(#paint9_linear_6_871)" stroke="black" stroke-width="2"/>
<path d="M23.6896 49.1246L23.6898 49.1247L23.6899 49.1248L23.6992 49.1298L23.7088 49.1348L42.2031 58.674C42.2038 58.6744 42.2047 58.6749 42.2058 58.6755C42.214 58.6802 42.2306 58.6898 42.2543 58.7045C42.3018 58.7341 42.3768 58.7835 42.4696 58.8538C42.6564 58.9951 42.9074 59.2152 43.15 59.5203C43.6233 60.1155 44.0859 61.0561 43.9469 62.464C43.639 65.5831 41.6243 67.6978 39.475 67.6978C25.1862 67.6978 18.1988 64.8974 14.7855 61.9925C11.4329 59.1392 11.3735 56.0493 11.3735 54.8929C11.3735 53.7725 11.7149 52.0722 12.3891 50.465C13.0726 48.8355 14.0133 47.5038 15.0741 46.8993C15.4582 46.6804 16.1231 46.5939 17.0812 46.7209C18.006 46.8434 19.0448 47.1425 20.0421 47.5034C21.033 47.8619 21.9482 48.2686 22.618 48.5872C22.952 48.7461 23.2228 48.882 23.4089 48.9775C23.5019 49.0253 23.5736 49.0629 23.6213 49.0881L23.6745 49.1165L23.6869 49.1232L23.6895 49.1246L23.6896 49.1246Z" fill="white" stroke="black" stroke-width="2"/>
<path d="M129.381 58.6722L129.38 58.6729C129.38 58.6725 129.381 58.6723 129.381 58.6722ZM129.381 58.6722L129.381 58.6722L129.381 58.6722ZM147.872 49.1348L147.882 49.1298L147.891 49.1248L147.891 49.1247L147.891 49.1246L147.891 49.1246L147.894 49.1232L147.906 49.1165L147.96 49.0881C148.007 49.0629 148.079 49.0253 148.172 48.9775C148.358 48.882 148.629 48.7461 148.963 48.5872C149.633 48.2686 150.548 47.8619 151.539 47.5034C152.536 47.1425 153.575 46.8434 154.5 46.7209C155.458 46.5939 156.123 46.6804 156.507 46.8993C157.568 47.5038 158.508 48.8355 159.192 50.465C159.866 52.0722 160.207 53.7725 160.207 54.8929C160.207 56.0493 160.148 59.1392 156.795 61.9925C153.382 64.8974 146.395 67.6978 132.106 67.6978C129.957 67.6978 127.942 65.5831 127.634 62.464C127.495 61.0561 127.958 60.1155 128.431 59.5203C128.674 59.2152 128.925 58.9951 129.111 58.8537C129.204 58.7835 129.279 58.7341 129.327 58.7045C129.35 58.6898 129.367 58.6802 129.375 58.6755C129.376 58.6749 129.377 58.6744 129.378 58.674L147.872 49.1348Z" fill="white" stroke="black" stroke-width="2"/>
<defs>
<linearGradient id="paint0_linear_6_871" x1="85.7905" y1="41.2904" x2="85.7905" y2="5.93378" gradientUnits="userSpaceOnUse">
<stop stop-color="#444B8C"/>
<stop offset="0.9964" stop-color="#3E4177"/>
</linearGradient>
<linearGradient id="paint1_linear_6_871" x1="103.381" y1="41.2904" x2="103.381" y2="5.93378" gradientUnits="userSpaceOnUse">
<stop stop-color="#444B8C"/>
<stop offset="0.9964" stop-color="#3E4177"/>
</linearGradient>
<linearGradient id="paint2_linear_6_871" x1="7.5137" y1="99.3278" x2="28.3726" y2="99.3278" gradientUnits="userSpaceOnUse">
<stop stop-color="#444B8C"/>
<stop offset="0.9964" stop-color="#3E4177"/>
</linearGradient>
<linearGradient id="paint3_linear_6_871" x1="143.713" y1="99.3278" x2="164.572" y2="99.3278" gradientUnits="userSpaceOnUse">
<stop stop-color="#444B8C"/>
<stop offset="0.9964" stop-color="#3E4177"/>
</linearGradient>
<linearGradient id="paint4_linear_6_871" x1="10.878" y1="43.9285" x2="10.878" y2="21.1634" gradientUnits="userSpaceOnUse">
<stop stop-color="#FCB148"/>
<stop offset="0.0521" stop-color="#FDBA46"/>
<stop offset="0.1424" stop-color="#FFC244"/>
<stop offset="0.3183" stop-color="#FFC444"/>
<stop offset="0.4849" stop-color="#FDB946"/>
<stop offset="0.7754" stop-color="#F99C4D"/>
<stop offset="0.8658" stop-color="#F8924F"/>
<stop offset="1" stop-color="#F8924F"/>
</linearGradient>
<linearGradient id="paint5_linear_6_871" x1="160.703" y1="43.9285" x2="160.703" y2="21.1634" gradientUnits="userSpaceOnUse">
<stop stop-color="#FCB148"/>
<stop offset="0.0521" stop-color="#FDBA46"/>
<stop offset="0.1424" stop-color="#FFC244"/>
<stop offset="0.3183" stop-color="#FFC444"/>
<stop offset="0.4849" stop-color="#FDB946"/>
<stop offset="0.7754" stop-color="#F99C4D"/>
<stop offset="0.8658" stop-color="#F8924F"/>
<stop offset="1" stop-color="#F8924F"/>
</linearGradient>
<linearGradient id="paint6_linear_6_871" x1="85.761" y1="82.1617" x2="85.761" y2="11.7664" gradientUnits="userSpaceOnUse">
<stop stop-color="#FCB148"/>
<stop offset="0.0521" stop-color="#FDBA46"/>
<stop offset="0.1424" stop-color="#FFC244"/>
<stop offset="0.3183" stop-color="#FFC444"/>
<stop offset="0.4849" stop-color="#FDB946"/>
<stop offset="0.7754" stop-color="#F99C4D"/>
<stop offset="0.8658" stop-color="#F8924F"/>
<stop offset="1" stop-color="#F8924F"/>
</linearGradient>
<linearGradient id="paint7_linear_6_871" x1="85.7903" y1="190.29" x2="85.7903" y2="85.6637" gradientUnits="userSpaceOnUse">
<stop stop-color="#FCB148"/>
<stop offset="0.0521" stop-color="#FDBA46"/>
<stop offset="0.1424" stop-color="#FFC244"/>
<stop offset="0.3183" stop-color="#FFC444"/>
<stop offset="0.4849" stop-color="#FDB946"/>
<stop offset="0.7754" stop-color="#F99C4D"/>
<stop offset="0.8658" stop-color="#F8924F"/>
<stop offset="1" stop-color="#F8924F"/>
</linearGradient>
<linearGradient id="paint8_linear_6_871" x1="85.7907" y1="-13.7908" x2="85.7907" y2="78.8959" gradientUnits="userSpaceOnUse">
<stop stop-color="#FCB148"/>
<stop offset="0.0521" stop-color="#FDBA46"/>
<stop offset="0.1424" stop-color="#FFC244"/>
<stop offset="0.3183" stop-color="#FFC444"/>
<stop offset="0.4849" stop-color="#FDB946"/>
<stop offset="0.7754" stop-color="#F99C4D"/>
<stop offset="0.8658" stop-color="#F8924F"/>
<stop offset="1" stop-color="#F8924F"/>
</linearGradient>
<linearGradient id="paint9_linear_6_871" x1="85.7907" y1="100.171" x2="85.7907" y2="69.2752" gradientUnits="userSpaceOnUse">
<stop stop-color="#FCB148"/>
<stop offset="0.0521" stop-color="#FDBA46"/>
<stop offset="0.1424" stop-color="#FFC244"/>
<stop offset="0.3183" stop-color="#FFC444"/>
<stop offset="0.4849" stop-color="#FDB946"/>
<stop offset="0.7754" stop-color="#F99C4D"/>
<stop offset="0.8658" stop-color="#F8924F"/>
<stop offset="1" stop-color="#F8924F"/>
</linearGradient>
</defs>
</svg>
